<?xml version="1.0" encoding="UTF-8"?>
<svg id="Layer_2" data-name="Layer 2" xmlns="http://www.w3.org/2000/svg" viewBox="0 0 523.14 844.34">
  <defs>
    <style>
      .cls-1 {
        fill: #fbe2a2;
      }

      .cls-2 {
        fill: #f7c64e;
      }

      .cls-3 {
        fill: #445dc4;
      }
    </style>
  </defs>
  <path class="cls-3" d="M153.08,830.13c-6.33,8.4-15.67,13.56-25.88,14.16-12.65.74-24.29-5.66-29.95-16.93-3.43-6.84-3.7-14.27-2.15-21.86l83.6-285.39,14.27-48.31-157.18-.18c-16.1-.02-30.1-12.15-34.3-27.07-2.74-9.74-1.56-18.86,2.12-27.97l77.97-193.03L159.46,30.43c2.63-6.52,6.96-11.93,11.89-16.68C180.11,5.31,191.75.04,204.2.03L469.43,0c7.26,0,13.66,2.15,19.52,5.95,17.42,11.28,22.84,34.02,12.76,52.24l-79.14,135.53-53.38,91.09,116.77.29c15.63.04,28.27,9.87,34.23,23.82,4.86,12.41,3.72,26.43-3.67,37.63l-11.8,16.22-150.56,200.51-201.09,266.85Z"/>
  <path class="cls-2" d="M160.29,777.01l-28.47,37.87c-2,2.67-5.32,4.14-8.26,2.73-1.99-.95-3.24-2.93-2.54-5.35l31.41-107.9,72.69-247.23c.67-2.29.39-4.47-.14-6.64-.71-2.92-4.03-5.72-7.61-5.72l-181.52-.08c-7.36-1.69-10.54-8.89-8.19-15.94l17.77-43.63,24.96-61.76,16.67-41.2,24.63-61.07,20.66-51.15,26.69-66.23,24.17-59.96c3.47-8.61,10.93-16.77,21-16.77l264.71-.14c3.29,0,6.59,1.99,8.34,4.13,4.09,4.99,3.1,10.95.03,16.18l-39.06,66.74-88.98,152.05-16.73,29.79c-1.54,2.74-2.15,5.68-1.52,8.75.7,3.4,3.35,7.38,7.59,7.38l145.31.1c3.76,0,6.99.89,9.46,3.65,3.83,4.27,4.73,11.17,1.02,16.17l-35.2,47.37-108.18,144.22-48.12,64-53.7,71.28-88.9,118.36Z"/>
  <path class="cls-1" d="M115.52,330.6c-7.76-.03-14.56-4.46-16.94-11.69-1.18-3.57-1.75-8.28-.15-12.06l34.32-80.74,51.35-119.96,14.77-33.83c4.05-9.28,15.74-12.78,24.51-7.89,7.59,4.24,12.22,13.62,8.62,22.01l-51.28,119.49-42.06,98.79-6.32,15c-2.81,6.66-9.11,10.9-16.81,10.87Z"/>
</svg>