<?xml version="1.0" encoding="UTF-8"?>
<svg id="Layer_2" data-name="Layer 2" xmlns="http://www.w3.org/2000/svg" viewBox="0 0 980 873.91">
  <defs>
    <style>
      .cls-1 {
        fill: #355bcb;
      }

      .cls-2 {
        fill: #f4ad22;
      }

      .cls-3 {
        fill: #355bca;
      }

      .cls-4 {
        fill: #f6af1f;
      }

      .cls-5 {
        fill: #365ccc;
      }

      .cls-6 {
        fill: #f5ad1c;
      }

      .cls-7 {
        fill: #355bc9;
      }
    </style>
  </defs>
  <path class="cls-4" d="M186.22,867.3c-.57,3.11-2.4,6.16-5.74,6.57s-5.94-2.46-6.44-5.77c-1.45-9.64-2.99-19.09-6.77-28.01-7.24-17.08-22.53-19.63-39.45-21.8-3-.38-5.25-3.53-5.36-5.97-.14-3.01,2.3-5.69,5.6-6.3,13.45-2.49,27.26-4.15,35.01-16.38,3.63-5.73,5.76-11.98,6.94-18.76l2.81-16.04c.55-3.13,2.44-5.7,5.62-5.77,2.73-.06,5.56,2.12,6.08,5.19l2.45,14.58c2.01,11.96,8.08,25.3,19.47,30.15,7.76,3.3,15.79,4.7,24.09,5.82,3.18.43,5.24,3.2,5.48,5.84.3,3.29-1.9,5.65-5.27,6.38l-17.08,3.71c-12.55,2.72-21.54,14.32-23.76,26.43l-3.69,20.13Z"/>
  <path class="cls-6" d="M63.52,118.44c-.59,3.57-2.74,5.89-5.77,6-3.32.12-5.93-1.94-6.56-5.43-1.62-8.96-3-17.78-6.01-26.38-4.11-11.75-10.3-16.35-21.65-19.98-12.08-3.86-22.49-1.54-23.49-8.73-.29-2.11.96-5.61,3.62-6.18l16.07-3.46c12.59-2.71,22.06-11.44,25.7-23.98,2.28-7.88,3.29-15.89,4.61-24.01.55-3.36,2.2-5.99,5.31-6.25,3.31-.28,6.01,2,6.64,5.49,3.48,19.09,4.81,39.38,25.94,46.2,13.38,4.31,24.73,1.86,25.27,9.99.48,7.17-11.22,6.06-22.01,9.54-16.41,5.28-22.53,15.97-25.3,32.81l-2.37,14.39Z"/>
  <path class="cls-2" d="M888.89,464.99c-.5,2.4-2.09,4.25-3.9,4.37-2.28.16-3.89-1.76-4.38-4.14l-2.69-13.13c-1.01-4.94-4.21-8.61-8.67-11.01-9.42-5.05-18.35-1.44-18.32-7.73.01-2.37,1.69-3.69,4.21-4.24l10.49-2.29c10.86-2.37,13.63-15.45,15.06-25.89.31-2.25,1.66-3.9,3.72-4,2.25-.11,3.96,1.55,4.28,3.99,1.76,13.52,4.2,24.22,18.68,26.62,5.63.94,12.19,2.3,10.76,6.73s-9.61,2-18.39,7.05c-3.93,2.26-7.06,5.42-7.98,9.86l-2.87,13.81Z"/>
  <path class="cls-5" d="M793.06,712.98c-119.89,104.69-287.78,131.34-433.66,67.13-46.12-20.3-88.27-48.1-124.8-83.26-23.16-22.3-44.09-47.15-61.83-74.02-47.62-72.12-69.28-156.29-63.76-242.47,5.6-87.43,41.54-169.52,101.84-232.87,16.67-17.51,34.78-33.9,54.34-48.4,44.17-32.75,93.68-56.75,146.79-71.13,57.77-15.64,115.51-20.69,174.76-12.17,3.48.5,6,2.17,6.87,5.42.62,2.31,0,6.89-3.1,8.58-23.18,12.67-44.81,27.94-64.41,46.17-46.86,43.57-78.83,101.3-91,164.2-10.6,54.83-6.11,108.63,11.61,161.31,9.44,28.07,22.51,54.06,39.12,78.54,41.83,61.64,103.55,108.32,174.72,130.7,64.74,20.36,133.76,19.79,197.99-1.47,3.93-1.3,7.9.14,10.16,2.67,2.59,2.89,3.58,7.6,1.25,11.35-20.81,33.45-46.88,63.53-76.88,89.72Z"/>
  <path class="cls-7" d="M836.25,201.53c-4.87-4.73-6.44-12.89-3.21-18.64l20.23-35.99,39.08-66.18-64.69,14.06c-9.01,1.96-17.29-2.19-19.58-11.1-1.94-7.57,2.36-17.04,11.52-19.04l98.47-21.47c6.76-1.47,13.24,2.63,16.3,7.12,4.05,5.97,4.07,13.26.29,19.56l-60.27,100.4,70.06-14.67c8.58-1.8,15.84,5.04,16.97,12.44,1.29,8.42-3.62,15.38-12.54,17.27l-95.11,20.1c-6.23,1.32-12.67.86-17.52-3.85Z"/>
  <path class="cls-3" d="M798.05,290.09l-74.68,21.49c-5.4,1.55-10.54.1-14.19-3.39-3.58-3.42-5.67-9.65-3.1-14.82l40.97-82.43-51.74,15.02c-6.52,1.89-12.37-3.22-13.99-8.92s.98-13.39,7.7-15.41l73.92-22.19c5.99-1.8,11.49-.79,15.43,3.49,3.88,4.21,5.16,10.6,2.29,16.31l-41.11,81.66,52.68-15.04c6.93-1.98,13.33,2.92,15.07,9.07,1.85,6.56-1.76,13-9.26,15.16Z"/>
  <path class="cls-1" d="M594.47,406.97c-4.24,1.23-8.22-.16-10.37-2.35-2.9-2.95-4.58-7.51-2.57-11.39l30.75-59.39-37.37,10.51c-3.64,1.02-7.97-.74-9.94-3.87s-1.86-6.68-.47-9.99c1.19-2.81,4.12-4.87,7.88-5.94l53.23-15.14c5.19-1.48,9.92.58,12.77,4.58s1.86,8.69-.63,13.31l-30.2,56.01,38.28-10.8c4.94-1.39,9.17,1.45,10.99,5.54,1.77,3.98,1.16,10.5-4.16,12.04l-58.2,16.86Z"/>
</svg>